<?xml version="1.0" encoding="UTF-8" standalone="no"?>
<!-- Created with Inkscape (http://www.inkscape.org/) -->

<svg
   width="450"
   height="450"
   viewBox="0 0 119.0625 119.0625"
   version="1.1"
   id="svg1"
   xml:space="preserve"
   inkscape:version="1.4.2 (ebf0e940, 2025-05-08)"
   sodipodi:docname="laughing-face.svg"
   xmlns:inkscape="http://www.inkscape.org/namespaces/inkscape"
   xmlns:sodipodi="http://sodipodi.sourceforge.net/DTD/sodipodi-0.dtd"
   xmlns="http://www.w3.org/2000/svg"
   xmlns:svg="http://www.w3.org/2000/svg"><sodipodi:namedview
     id="namedview1"
     pagecolor="#ffffff"
     bordercolor="#000000"
     borderopacity="0.25"
     inkscape:showpageshadow="2"
     inkscape:pageopacity="0.0"
     inkscape:pagecheckerboard="0"
     inkscape:deskcolor="#d1d1d1"
     inkscape:document-units="mm"
     inkscape:zoom="0.65195891"
     inkscape:cx="263.82031"
     inkscape:cy="236.21121"
     inkscape:window-width="1744"
     inkscape:window-height="1067"
     inkscape:window-x="0"
     inkscape:window-y="25"
     inkscape:window-maximized="0"
     inkscape:current-layer="layer1" /><defs
     id="defs1" /><g
     inkscape:label="Layer 1"
     inkscape:groupmode="layer"
     id="layer1"><g
       style="fill:none"
       id="g1"
       transform="matrix(5.3366938,0,0,5.3366938,-4.5090756,-4.5090756)"
       inkscape:label="laughing-face"><path
         d="M 6.74927,12 C 6.53852,12 6.33749,12.0887 6.19539,12.2443 6.05329,12.4 5.98323,12.6082 6.00237,12.8181 6.28259,15.8916 8.55224,18.5 12,18.5 c 3.4478,0 5.7174,-2.6084 5.9977,-5.6819 C 18.0168,12.6082 17.9468,12.4 17.8047,12.2443 17.6626,12.0887 17.4616,12 17.2508,12 Z M 12,17 C 9.74286,17 8.12852,15.5205 7.63237,13.5 H 16.3677 C 15.8715,15.5205 14.2571,17 12,17 Z"
         fill="#212121"
         id="path1"
         inkscape:label="mouth" /><path
         d="M 15.2501,8.75 C 14.8416,8.75 14.5398,9.03719 14.492,9.35982 14.4314,9.76957 14.05,10.0526 13.6403,9.99192 13.2305,9.93126 12.9475,9.54993 13.0082,9.14018 13.1696,8.0495 14.1313,7.25 15.2501,7.25 c 1.1188,0 2.0805,0.7995 2.2419,1.89018 0.0607,0.40975 -0.2223,0.79108 -0.6321,0.85174 C 16.4502,10.0526 16.0688,9.76957 16.0082,9.35982 15.9604,9.03719 15.6586,8.75 15.2501,8.75 Z"
         fill="#212121"
         id="path2"
         inkscape:label="eye-right" /><path
         d="M 7.99202,9.35982 C 8.03977,9.03719 8.34157,8.75 8.7501,8.75 9.15863,8.75 9.46043,9.03719 9.50818,9.35982 9.56884,9.76957 9.95017,10.0526 10.3599,9.99192 10.7697,9.93126 11.0527,9.54993 10.992,9.14018 10.8306,8.0495 9.86892,7.25 8.7501,7.25 7.63128,7.25 6.66963,8.0495 6.50818,9.14018 6.44753,9.54993 6.73053,9.93126 7.14028,9.99192 7.55003,10.0526 7.93136,9.76957 7.99202,9.35982 Z"
         fill="#212121"
         id="path3"
         inkscape:label="eye-left" /><path
         d="M 12,2 C 6.47715,2 2,6.47715 2,12 2,17.5228 6.47715,22 12,22 17.5228,22 22,17.5228 22,12 22,6.47715 17.5228,2 12,2 Z M 3.5,12 c 0,-4.69442 3.80558,-8.5 8.5,-8.5 4.6944,0 8.5,3.80558 8.5,8.5 0,4.6944 -3.8056,8.5 -8.5,8.5 -4.69442,0 -8.5,-3.8056 -8.5,-8.5 z"
         fill="#212121"
         id="path4"
         inkscape:label="face" /></g></g></svg>
